<svg width="235" height="62" viewBox="0 0 235 62" fill="none" xmlns="http://www.w3.org/2000/svg">
<path d="M144.609 30.9551L139.906 23.0544L130.654 7.40702L126.415 0.275912L121.195 6.63748L118.456 9.97217L110.186 20.0275C108.79 21.8231 106.62 23.0031 104.139 23.0031C99.952 23.0031 96.5407 19.6171 96.5407 15.4616C96.5407 11.306 99.8487 7.92005 104.087 7.92005C108.325 7.92005 111.685 11.306 111.685 15.4616C111.685 15.872 111.633 16.2311 111.581 16.6415L117.939 8.94611C115.458 3.81581 110.186 0.224609 104.035 0.224609C95.5587 0.224609 88.6327 7.0479 88.6327 15.5129C88.6327 23.9266 95.5587 30.9551 104.035 30.9551C108.945 30.9551 113.339 28.5951 116.13 24.9526L125.33 13.7686L130.809 23.0544L130.912 23.2596H118.663C118.663 23.2596 118.663 23.3109 118.714 23.3622C119.024 24.2857 120.523 30.4933 128.586 30.9551H136.804H144.609V30.9551Z" fill="#ffffff30"/>
<path d="M17.0472 47.4746C17.0472 48.8085 16.8404 50.0397 16.4786 51.1684C16.0651 52.2971 15.4966 53.2205 14.773 54.0414C14.0493 54.8109 13.119 55.4265 12.0853 55.8883C11.0515 56.2987 9.86275 56.5552 8.62228 56.5552C7.3818 56.5552 6.19302 56.35 5.15929 55.8883C4.12556 55.4778 3.24689 54.8622 2.4716 54.0414C1.74799 53.2718 1.12775 52.2971 0.714261 51.1684C0.30077 50.0397 0.0940247 48.8085 0.0940247 47.4746C0.0940247 46.1407 0.30077 44.9094 0.714261 43.7808C1.12775 42.6521 1.74799 41.7287 2.4716 40.9591C3.24689 40.1896 4.12556 39.5739 5.15929 39.1635C6.19302 38.7531 7.33012 38.4966 8.57059 38.4966C9.81107 38.4966 10.9482 38.7018 11.9819 39.1635C13.0156 39.5739 13.8943 40.1896 14.6696 40.9591C15.3932 41.7287 16.0134 42.7034 16.4269 43.7808C16.8404 44.9094 17.0472 46.0894 17.0472 47.4746ZM12.0853 47.4746C12.0853 45.9868 11.7751 44.8068 11.2066 43.9347C10.5864 43.0625 9.75938 42.6521 8.62228 42.6521C7.48518 42.6521 6.6582 43.0625 6.03796 43.9347C5.41772 44.8068 5.1076 45.9868 5.1076 47.4746C5.1076 48.9624 5.41772 50.1423 6.03796 51.0145C6.6582 51.8866 7.48518 52.3484 8.62228 52.3484C9.75938 52.3484 10.5864 51.8866 11.2066 51.0145C11.7751 50.1423 12.0853 48.9624 12.0853 47.4746Z" fill="#ffffff30"/>
<path d="M19.9932 47.4746C19.9932 46.2434 20.1999 45.0634 20.6134 43.986C21.0269 42.9087 21.5955 41.9339 22.3708 41.1131C23.1461 40.2922 24.0764 39.6766 25.1618 39.1636C26.2472 38.7018 27.4877 38.4453 28.8833 38.4453C29.8136 38.4453 30.6406 38.5479 31.4159 38.7018C32.1912 38.8557 32.9148 39.1123 33.6384 39.4201L32.6047 43.2678C32.1395 43.1139 31.6226 42.96 31.1058 42.8061C30.5372 42.6522 29.9687 42.6008 29.2967 42.6008C27.8495 42.6008 26.7641 43.0626 26.0922 43.9347C25.3686 44.8069 25.0068 45.9868 25.0068 47.4233C25.0068 48.9624 25.3169 50.1424 25.9888 51.0145C26.6607 51.8354 27.7978 52.2971 29.4518 52.2971C30.0204 52.2971 30.6923 52.2458 31.3642 52.1432C32.0361 52.0406 32.6564 51.8867 33.2249 51.6302L33.8968 55.5805C33.3283 55.837 32.6047 56.0422 31.7777 56.1961C30.9507 56.35 29.9687 56.4526 28.9866 56.4526C27.436 56.4526 26.0405 56.1961 24.9034 55.7344C23.7663 55.2727 22.8359 54.657 22.1123 53.8362C21.3887 53.0153 20.8719 52.0919 20.5101 51.0145C20.1483 49.9372 19.9932 48.7572 19.9932 47.4746Z" fill="#ffffff30"/>
<path d="M35.5508 47.6285C35.5508 46.0894 35.8092 44.8068 36.2744 43.6269C36.7396 42.4982 37.3598 41.5235 38.1351 40.8052C38.9104 40.0357 39.7891 39.4713 40.7711 39.0609C41.7532 38.6505 42.7869 38.4966 43.8206 38.4966C46.2499 38.4966 48.214 39.2148 49.6095 40.7026C51.005 42.1904 51.7287 44.3451 51.7287 47.2694C51.7287 47.5259 51.7287 47.885 51.677 48.1928C51.677 48.552 51.6253 48.8085 51.6253 49.065H40.5644C40.6678 50.0397 41.1329 50.8606 41.9599 51.4249C42.7869 51.9893 43.924 52.2971 45.3195 52.2971C46.1982 52.2971 47.0769 52.1945 47.9556 52.0406C48.8342 51.8866 49.5061 51.6814 50.0747 51.4249L50.7466 55.3752C50.4882 55.5292 50.1264 55.6318 49.7129 55.7857C49.2994 55.9396 48.7825 56.0422 48.2657 56.1448C47.7488 56.2474 47.1803 56.2987 46.56 56.4013C45.9398 56.4526 45.3195 56.5039 44.751 56.5039C43.2004 56.5039 41.8566 56.2987 40.7195 55.837C39.5824 55.3752 38.6003 54.7596 37.8767 53.9901C37.1531 53.2205 36.5845 52.2458 36.2227 51.1684C35.7059 50.0397 35.5508 48.8598 35.5508 47.6285ZM46.9735 45.7816C46.9735 45.3712 46.8701 44.9608 46.7668 44.6016C46.6634 44.1912 46.4566 43.8834 46.1982 43.5756C45.9398 43.2678 45.6297 43.0112 45.2679 42.806C44.906 42.6008 44.3892 42.4982 43.8206 42.4982C43.2521 42.4982 42.7869 42.6008 42.4251 42.7547C42.0116 42.9599 41.7015 43.1652 41.4431 43.473C41.1846 43.7808 40.9779 44.1399 40.8228 44.5503C40.6678 44.9608 40.5644 45.3712 40.5127 45.7816H46.9735V45.7816Z" fill="#ffffff30"/>
<path d="M61.6525 38.4966C63.0997 38.4966 64.2885 38.6505 65.2705 39.0096C66.2526 39.3174 66.9762 39.7792 67.5964 40.3948C68.165 41.0104 68.5785 41.7287 68.8369 42.6008C69.0953 43.473 69.1987 44.4477 69.1987 45.4738V55.5292C68.4751 55.6831 67.5448 55.837 66.3043 56.0422C65.0638 56.2474 63.5649 56.35 61.8076 56.35C60.6705 56.35 59.6884 56.2474 58.7581 56.0422C57.8277 55.837 57.0524 55.5292 56.4322 55.0674C55.7603 54.6057 55.2951 54.0414 54.9333 53.3231C54.5715 52.6049 54.4164 51.7327 54.4164 50.7067C54.4164 49.7319 54.6232 48.8598 55.0366 48.1928C55.4501 47.4746 55.967 46.9616 56.6389 46.5511C57.3108 46.1407 58.0861 45.8329 58.9648 45.679C59.8435 45.4738 60.7222 45.4225 61.7042 45.4225C62.3244 45.4225 62.893 45.4738 63.4098 45.5251C63.875 45.5764 64.2885 45.6277 64.5986 45.7303V45.2686C64.5986 44.4477 64.3402 43.7808 63.8233 43.2678C63.3065 42.7547 62.4278 42.4982 61.1873 42.4982C60.3603 42.4982 59.5334 42.5495 58.7581 42.6521C57.9311 42.7547 57.2592 42.9599 56.6389 43.1651L56.0187 39.2661C56.2771 39.1635 56.6389 39.1122 57.1041 39.0096C57.5176 38.907 57.9828 38.8044 58.4996 38.7531C59.0165 38.7018 59.5334 38.5992 60.1019 38.5479C60.5154 38.4966 61.084 38.4966 61.6525 38.4966ZM62.066 52.6562C62.5312 52.6562 62.9964 52.6562 63.4615 52.6049C63.875 52.6049 64.2368 52.5536 64.4953 52.5023V48.8085C64.2885 48.7572 64.0301 48.7059 63.6166 48.6546C63.2031 48.6033 62.8413 48.6033 62.5312 48.6033C62.066 48.6033 61.6525 48.6546 61.239 48.7059C60.8255 48.7572 60.4637 48.8598 60.1536 49.0137C59.8435 49.1676 59.585 49.3728 59.43 49.6293C59.2749 49.8858 59.1716 50.1936 59.1716 50.6041C59.1716 51.3736 59.43 51.8866 59.9469 52.1945C60.4637 52.5023 61.1356 52.6562 62.066 52.6562Z" fill="#ffffff30"/>
<path d="M73.5403 39.5226C74.3673 39.2661 75.4527 39.0609 76.7449 38.8557C78.037 38.6505 79.4326 38.5479 80.8798 38.5479C82.327 38.5479 83.5675 38.7531 84.5495 39.1122C85.5315 39.4713 86.3068 40.0356 86.8754 40.7026C87.4439 41.4208 87.8574 42.2417 88.0642 43.1651C88.3226 44.1399 88.426 45.1659 88.426 46.3459V55.9909H83.5675V46.9615C83.5675 45.4224 83.3607 44.2938 82.9472 43.6268C82.5337 42.9599 81.7584 42.6521 80.6213 42.6521C80.2595 42.6521 79.8977 42.6521 79.4842 42.7034C79.0708 42.7547 78.7606 42.7547 78.4505 42.806V55.9909H73.592V39.5226H73.5403Z" fill="#ffffff30"/>
<path d="M106.878 38.4966C108.325 38.4966 109.514 38.6505 110.496 39.0096C111.478 39.3174 112.202 39.7792 112.822 40.3948C113.39 41.0104 113.804 41.7287 114.062 42.6008C114.321 43.473 114.424 44.4477 114.424 45.4738V55.5292C113.701 55.6831 112.77 55.837 111.53 56.0422C110.289 56.2474 108.79 56.35 107.033 56.35C105.896 56.35 104.914 56.2474 103.984 56.0422C103.053 55.837 102.278 55.5292 101.658 55.0674C100.986 54.6057 100.521 54.0414 100.159 53.3231C99.7969 52.6049 99.6419 51.7327 99.6419 50.7067C99.6419 49.7319 99.8486 48.8598 100.262 48.1928C100.676 47.4746 101.192 46.9616 101.864 46.5511C102.536 46.1407 103.312 45.8329 104.19 45.679C105.069 45.4738 105.948 45.4225 106.93 45.4225C107.55 45.4225 108.118 45.4738 108.635 45.5251C109.1 45.5764 109.514 45.6277 109.824 45.7303V45.2686C109.824 44.4477 109.566 43.7808 109.049 43.2678C108.532 42.7547 107.653 42.4982 106.413 42.4982C105.586 42.4982 104.759 42.5495 103.984 42.6521C103.157 42.7547 102.485 42.9599 101.864 43.1651L101.244 39.2661C101.503 39.1635 101.864 39.1122 102.33 39.0096C102.743 38.907 103.208 38.8044 103.725 38.7531C104.242 38.7018 104.759 38.5992 105.327 38.5479C105.741 38.4966 106.309 38.4966 106.878 38.4966ZM107.291 52.6562C107.757 52.6562 108.222 52.6562 108.687 52.6049C109.1 52.6049 109.462 52.5536 109.721 52.5023V48.8085C109.514 48.7572 109.256 48.7059 108.842 48.6546C108.429 48.6033 108.067 48.6033 107.757 48.6033C107.291 48.6033 106.878 48.6546 106.464 48.7059C106.051 48.7572 105.689 48.8598 105.379 49.0137C105.069 49.1676 104.811 49.3728 104.655 49.6293C104.5 49.8858 104.397 50.1936 104.397 50.6041C104.397 51.3736 104.655 51.8866 105.172 52.1945C105.689 52.5023 106.361 52.6562 107.291 52.6562Z" fill="#ffffff30"/>
<path d="M117.991 47.4746C117.991 46.2434 118.197 45.0634 118.611 43.986C119.024 42.9087 119.593 41.9339 120.368 41.1131C121.143 40.2922 122.074 39.6766 123.159 39.1636C124.245 38.7018 125.485 38.4453 126.881 38.4453C127.811 38.4453 128.638 38.5479 129.413 38.7018C130.189 38.8557 130.912 39.1123 131.636 39.4201L130.602 43.2678C130.137 43.1139 129.62 42.96 129.103 42.8061C128.535 42.6522 127.966 42.6008 127.294 42.6008C125.847 42.6008 124.762 43.0626 124.09 43.9347C123.366 44.8069 123.004 45.9868 123.004 47.4233C123.004 48.9624 123.314 50.1424 123.986 51.0145C124.658 51.8354 125.795 52.2971 127.449 52.2971C128.018 52.2971 128.69 52.2458 129.362 52.1432C130.034 52.0406 130.654 51.8867 131.222 51.6302L131.894 55.5805C131.326 55.837 130.602 56.0422 129.775 56.1961C128.948 56.35 127.966 56.4526 126.984 56.4526C125.433 56.4526 124.038 56.1961 122.901 55.7344C121.764 55.2727 120.833 54.657 120.11 53.8362C119.386 53.0153 118.869 52.0919 118.507 51.0145C118.146 49.9372 117.991 48.7572 117.991 47.4746Z" fill="#ffffff30"/>
<path d="M140.526 38.4966C141.973 38.4966 143.162 38.6505 144.144 39.0096C145.126 39.3687 145.85 39.7792 146.47 40.3948C147.038 41.0104 147.452 41.7287 147.71 42.6008C147.969 43.473 148.072 44.4477 148.072 45.4738V55.5292C147.349 55.6831 146.418 55.837 145.178 56.0422C143.937 56.2474 142.438 56.35 140.681 56.35C139.544 56.35 138.562 56.2474 137.631 56.0422C136.701 55.837 135.926 55.5292 135.306 55.0674C134.685 54.6057 134.168 54.0414 133.807 53.3231C133.445 52.6049 133.29 51.7327 133.29 50.7067C133.29 49.7319 133.497 48.8598 133.91 48.1928C134.324 47.4746 134.84 46.9616 135.512 46.5511C136.184 46.1407 136.96 45.8329 137.838 45.679C138.717 45.4738 139.596 45.4225 140.578 45.4225C141.198 45.4225 141.766 45.4738 142.283 45.5251C142.8 45.5764 143.162 45.6277 143.472 45.7303V45.2686C143.472 44.4477 143.214 43.7808 142.697 43.2678C142.18 42.7547 141.301 42.4982 140.061 42.4982C139.234 42.4982 138.407 42.5495 137.631 42.6521C136.804 42.7547 136.133 42.9599 135.512 43.1651L134.892 39.2661C135.151 39.1635 135.512 39.1122 135.978 39.0096C136.391 38.907 136.856 38.8044 137.373 38.7531C137.89 38.7018 138.407 38.5992 138.975 38.5479C139.389 38.4966 139.957 38.4966 140.526 38.4966ZM140.939 52.6562C141.405 52.6562 141.87 52.6562 142.335 52.6049C142.748 52.6049 143.11 52.5536 143.369 52.5023V48.8085C143.162 48.7572 142.852 48.7059 142.49 48.6546C142.077 48.6033 141.715 48.6033 141.405 48.6033C140.939 48.6033 140.526 48.6546 140.112 48.7059C139.699 48.7572 139.337 48.8598 139.027 49.0137C138.717 49.1676 138.458 49.3728 138.303 49.6293C138.148 49.8858 138.045 50.1936 138.045 50.6041C138.045 51.3736 138.303 51.8866 138.82 52.1945C139.337 52.5023 140.009 52.6562 140.939 52.6562Z" fill="#ffffff30"/>
<path d="M167.609 55.4779C167.196 55.6319 166.679 55.7345 166.111 55.8371C165.542 55.9397 164.973 56.0423 164.302 56.1449C163.63 56.2475 163.061 56.2988 162.389 56.3501C161.769 56.4014 161.149 56.4527 160.528 56.4527C159.133 56.4527 157.841 56.2475 156.755 55.8371C155.618 55.4266 154.688 54.811 153.964 54.0415C153.189 53.2719 152.62 52.3485 152.207 51.2711C151.793 50.1937 151.587 48.9625 151.587 47.5773C151.587 46.1921 151.742 44.9608 152.104 43.8322C152.465 42.7035 152.931 41.7801 153.602 41.0105C154.274 40.241 155.05 39.6253 156.032 39.2149C156.962 38.8045 158.048 38.5993 159.288 38.5993C159.96 38.5993 160.58 38.6506 161.097 38.8045C161.614 38.9584 162.182 39.1123 162.699 39.3688V31.6221L167.558 30.8525V55.4779H167.609ZM156.6 47.3721C156.6 48.8599 156.962 50.0911 157.634 50.9633C158.306 51.8867 159.34 52.3485 160.632 52.3485C161.045 52.3485 161.459 52.3485 161.821 52.2972C162.182 52.2459 162.493 52.2459 162.751 52.1946V43.3705C162.441 43.1652 162.027 43.0113 161.562 42.8574C161.045 42.7035 160.58 42.6522 160.063 42.6522C157.737 42.7035 156.6 44.2426 156.6 47.3721Z" fill="#ffffff30"/>
<path d="M171.383 47.6285C171.383 46.0894 171.641 44.8068 172.106 43.6269C172.571 42.4982 173.192 41.5235 173.967 40.8052C174.742 40.0357 175.621 39.4713 176.603 39.0609C177.585 38.6505 178.619 38.4966 179.652 38.4966C182.082 38.4966 184.046 39.2148 185.441 40.7026C186.837 42.1904 187.56 44.3451 187.56 47.2694C187.56 47.5259 187.56 47.885 187.509 48.1928C187.509 48.552 187.457 48.8085 187.457 49.065H176.396C176.5 50.0397 176.965 50.8606 177.792 51.4249C178.619 51.9893 179.756 52.2971 181.151 52.2971C182.03 52.2971 182.909 52.1945 183.787 52.0406C184.666 51.8866 185.338 51.6814 185.906 51.4249L186.578 55.3752C186.32 55.5292 185.958 55.6318 185.545 55.7857C185.131 55.9396 184.614 56.0422 184.097 56.1448C183.581 56.2474 183.012 56.2987 182.392 56.4013C181.772 56.4526 181.151 56.5039 180.583 56.5039C179.032 56.5039 177.688 56.2987 176.551 55.837C175.414 55.3752 174.432 54.7596 173.708 53.9901C172.985 53.2205 172.416 52.2458 172.055 51.1684C171.693 50.091 171.383 48.8598 171.383 47.6285ZM182.857 45.7816C182.857 45.3712 182.754 44.9608 182.65 44.6016C182.547 44.1912 182.34 43.8834 182.082 43.5756C181.823 43.2678 181.513 43.0112 181.151 42.806C180.79 42.6008 180.273 42.4982 179.704 42.4982C179.136 42.4982 178.67 42.6008 178.309 42.7547C177.895 42.9599 177.585 43.1652 177.327 43.473C177.068 43.7808 176.861 44.1399 176.706 44.5503C176.551 44.9608 176.448 45.3712 176.396 45.7816H182.857V45.7816Z" fill="#ffffff30"/>
<path d="M200.792 46.9615C200.792 45.4224 200.585 44.2938 200.172 43.6268C199.758 42.9599 199.087 42.6521 198.104 42.6521C197.794 42.6521 197.484 42.6521 197.174 42.7034C196.864 42.7547 196.554 42.7547 196.244 42.806V55.9908H191.385V39.5226C191.799 39.42 192.264 39.3174 192.832 39.1635C193.401 39.0609 193.97 38.9583 194.59 38.8557C195.21 38.7531 195.83 38.7018 196.502 38.6505C197.174 38.5992 197.794 38.5479 198.415 38.5479C199.655 38.5479 200.689 38.7018 201.464 39.0096C202.239 39.3174 202.86 39.6765 203.376 40.1382C204.1 39.6252 204.875 39.2661 205.806 38.9583C206.736 38.7018 207.563 38.5479 208.287 38.5479C209.682 38.5479 210.768 38.7531 211.698 39.1122C212.577 39.4713 213.3 40.0356 213.817 40.7026C214.334 41.4208 214.696 42.2417 214.903 43.1651C215.109 44.0886 215.213 45.1659 215.213 46.3459V55.9908H210.354V46.9615C210.354 45.4224 210.147 44.2938 209.734 43.6268C209.32 42.9599 208.649 42.6521 207.666 42.6521C207.408 42.6521 207.046 42.7034 206.581 42.8573C206.116 43.0112 205.702 43.1651 205.444 43.3703C205.599 43.8834 205.702 44.3964 205.754 44.9607C205.806 45.5251 205.806 46.0894 205.806 46.7563V56.0935H200.947V46.9615H200.792Z" fill="#ffffff30"/>
<path d="M234.337 38.9585C233.355 42.2419 232.321 45.3201 231.235 48.1931C230.15 51.066 229.013 53.8877 227.721 56.5554C227.256 57.5302 226.79 58.351 226.325 59.018C225.86 59.6849 225.343 60.2492 224.826 60.711C224.258 61.1727 223.638 61.4805 222.966 61.6857C222.294 61.8909 221.467 61.9935 220.536 61.9935C219.761 61.9935 219.089 61.9422 218.417 61.7883C217.797 61.6344 217.228 61.4805 216.815 61.3266L217.642 57.4789C218.159 57.6328 218.572 57.7867 218.986 57.838C219.399 57.8893 219.813 57.9406 220.226 57.9406C221.105 57.9406 221.777 57.6841 222.242 57.2224C222.707 56.7606 223.121 56.0937 223.431 55.2729C222.294 53.1181 221.208 50.6556 220.071 47.9878C218.934 45.2688 217.9 42.2419 216.918 38.9072H222.087C222.294 39.7281 222.552 40.6515 222.862 41.6776C223.172 42.6523 223.482 43.6784 223.793 44.6532C224.103 45.6792 224.465 46.654 224.775 47.5774C225.136 48.5522 225.447 49.373 225.757 50.1939C226.015 49.4243 226.325 48.5522 226.635 47.5774C226.945 46.6027 227.256 45.6279 227.514 44.6532C227.824 43.6271 228.083 42.6523 228.393 41.6776C228.651 40.7028 228.91 39.7794 229.116 38.9072H234.337V38.9585Z" fill="#ffffff30"/>
</svg>
