<svg width="1137" height="632" viewBox="0 0 1137 632" fill="none" xmlns="http://www.w3.org/2000/svg">
<path d="M907.847 502.335L850.804 406.516L738.598 216.746L687.197 130.261L623.885 207.413L590.662 247.856L490.367 369.807C473.442 391.583 447.114 405.894 417.026 405.894C366.251 405.894 324.879 364.829 324.879 314.431C324.879 264.033 364.997 222.968 416.399 222.968C467.8 222.968 508.545 264.033 508.545 314.431C508.545 319.409 507.919 323.764 507.292 328.742L584.394 235.412C554.305 173.192 490.367 129.638 415.772 129.638C312.969 129.638 228.971 212.391 228.971 315.053C228.971 417.094 312.969 502.335 415.772 502.335C475.322 502.335 528.604 473.714 562.454 429.538L674.033 293.898L740.479 406.516L741.733 409.005H593.17C593.17 409.005 593.17 409.627 593.797 410.249C597.558 421.449 615.736 496.735 713.525 502.335H813.193H907.847V502.335Z" fill="#0781c8" fill-opacity="0.9"/>
</svg>
